<svg width="58" height="58" viewBox="0 0 58 58" fill="none" xmlns="http://www.w3.org/2000/svg">
<rect width="58" height="58" rx="29" fill="#F3F3F3"/>
<g clip-path="url(#clip0_62_216)">
<path d="M39 39H19C18.4696 39 17.9609 38.7893 17.5858 38.4142C17.2107 38.0391 17 37.5304 17 37V23C17 22.4696 17.2107 21.9609 17.5858 21.5858C17.9609 21.2107 18.4696 21 19 21H23L25 18H33L35 21H39C39.5304 21 40.0391 21.2107 40.4142 21.5858C40.7893 21.9609 41 22.4696 41 23V37C41 37.5304 40.7893 38.0391 40.4142 38.4142C40.0391 38.7893 39.5304 39 39 39Z" stroke="black" stroke-width="2" stroke-linecap="round" stroke-linejoin="round"/>
<path d="M29 34C31.4853 34 33.5 31.9853 33.5 29.5C33.5 27.0147 31.4853 25 29 25C26.5147 25 24.5 27.0147 24.5 29.5C24.5 31.9853 26.5147 34 29 34Z" stroke="black" stroke-width="2" stroke-linecap="round" stroke-linejoin="round"/>
</g>
<defs>
<clipPath id="clip0_62_216">
<rect width="32" height="32" fill="white" transform="translate(13 13)"/>
</clipPath>
</defs>
</svg>
