<svg width="58" height="58" viewBox="0 0 58 58" fill="none" xmlns="http://www.w3.org/2000/svg">
<rect width="58" height="58" rx="29" fill="#F3F3F3"/>
<g clip-path="url(#clip0_414_817)">
<path d="M29 38.75V35.75" stroke="black" stroke-width="1.5" stroke-linecap="round" stroke-linejoin="round"/>
<path d="M29 37.25C33.5563 37.25 37.25 33.5563 37.25 29C37.25 24.4437 33.5563 20.75 29 20.75C24.4437 20.75 20.75 24.4437 20.75 29C20.75 33.5563 24.4437 37.25 29 37.25Z" stroke="black" stroke-width="1.5" stroke-linecap="round" stroke-linejoin="round"/>
<path d="M29 19.25V22.25" stroke="black" stroke-width="1.5" stroke-linecap="round" stroke-linejoin="round"/>
<path d="M19.25 29H22.25" stroke="black" stroke-width="1.5" stroke-linecap="round" stroke-linejoin="round"/>
<path d="M38.75 29H35.75" stroke="black" stroke-width="1.5" stroke-linecap="round" stroke-linejoin="round"/>
<path d="M29 32C30.6569 32 32 30.6569 32 29C32 27.3431 30.6569 26 29 26C27.3431 26 26 27.3431 26 29C26 30.6569 27.3431 32 29 32Z" stroke="black" stroke-width="1.5" stroke-linecap="round" stroke-linejoin="round"/>
</g>
<defs>
<clipPath id="clip0_414_817">
<rect width="24" height="24" fill="white" transform="translate(17 17)"/>
</clipPath>
</defs>
</svg>
