<svg width="58" height="58" viewBox="0 0 58 58" fill="none" xmlns="http://www.w3.org/2000/svg">
<rect width="58" height="58" rx="29" fill="#E4FFFB"/>
<g clip-path="url(#clip0_406_461)">
<path d="M35.75 38H22.25C22.0511 38 21.8603 37.921 21.7197 37.7803C21.579 37.6397 21.5 37.4489 21.5 37.25V20.75C21.5 20.5511 21.579 20.3603 21.7197 20.2197C21.8603 20.079 22.0511 20 22.25 20H31.25L36.5 25.25V37.25C36.5 37.4489 36.421 37.6397 36.2803 37.7803C36.1397 37.921 35.9489 38 35.75 38Z" stroke="black" stroke-width="2" stroke-linecap="round" stroke-linejoin="round"/>
<path d="M31.25 20V25.25H36.5" stroke="black" stroke-width="2" stroke-linecap="round" stroke-linejoin="round"/>
<path d="M26 29.75H32" stroke="black" stroke-width="2" stroke-linecap="round" stroke-linejoin="round"/>
<path d="M26 32.75H32" stroke="black" stroke-width="2" stroke-linecap="round" stroke-linejoin="round"/>
</g>
<defs>
<clipPath id="clip0_406_461">
<rect width="24" height="24" fill="white" transform="translate(17 17)"/>
</clipPath>
</defs>
</svg>
