<svg width="58" height="58" viewBox="0 0 58 58" fill="none" xmlns="http://www.w3.org/2000/svg">
<rect width="58" height="58" rx="29" fill="#F3F3F3"/>
<g clip-path="url(#clip0_406_354)">
<path d="M25.7347 28.5153C25.4123 27.7131 25.2477 26.8562 25.25 25.9916C25.25 22.3747 28.1637 19.3691 31.7787 19.2537C32.7022 19.223 33.6222 19.3821 34.4816 19.7213C35.3411 20.0605 36.1218 20.5726 36.7753 21.2257C37.4288 21.8789 37.9413 22.6593 38.281 23.5186C38.6206 24.3779 38.7803 25.2978 38.75 26.2212C38.6309 29.8362 35.6253 32.75 32.0084 32.75C31.1438 32.7523 30.2869 32.5877 29.4847 32.2653L28.25 33.5H26V35.75H23.75V38H20.75C20.5511 38 20.3603 37.921 20.2197 37.7803C20.079 37.6397 20 37.4489 20 37.25V34.5603C20.0001 34.3617 20.079 34.1712 20.2194 34.0306L25.7347 28.5153Z" stroke="black" stroke-width="1.5" stroke-linecap="round" stroke-linejoin="round"/>
<path d="M33.875 25.0625C34.3928 25.0625 34.8125 24.6428 34.8125 24.125C34.8125 23.6072 34.3928 23.1875 33.875 23.1875C33.3572 23.1875 32.9375 23.6072 32.9375 24.125C32.9375 24.6428 33.3572 25.0625 33.875 25.0625Z" fill="black"/>
</g>
<defs>
<clipPath id="clip0_406_354">
<rect width="24" height="24" fill="white" transform="translate(17 17)"/>
</clipPath>
</defs>
</svg>
