<svg width="24" height="24" viewBox="0 0 24 24" fill="none" xmlns="http://www.w3.org/2000/svg">
<g clip-path="url(#clip0_367_36)">
<path d="M19.5 8.25H4.5C4.08579 8.25 3.75 8.58579 3.75 9V19.5C3.75 19.9142 4.08579 20.25 4.5 20.25H19.5C19.9142 20.25 20.25 19.9142 20.25 19.5V9C20.25 8.58579 19.9142 8.25 19.5 8.25Z" stroke="#D09901" stroke-width="1.5" stroke-linecap="round" stroke-linejoin="round"/>
<path d="M12 15.1875C12.5178 15.1875 12.9375 14.7678 12.9375 14.25C12.9375 13.7322 12.5178 13.3125 12 13.3125C11.4822 13.3125 11.0625 13.7322 11.0625 14.25C11.0625 14.7678 11.4822 15.1875 12 15.1875Z" fill="#D09901"/>
<path d="M8.25 8.25V5.25C8.25 4.25544 8.64509 3.30161 9.34835 2.59835C10.0516 1.89509 11.0054 1.5 12 1.5C12.9946 1.5 13.9484 1.89509 14.6517 2.59835C15.3549 3.30161 15.75 4.25544 15.75 5.25V8.25" stroke="#D09901" stroke-width="1.5" stroke-linecap="round" stroke-linejoin="round"/>
</g>
<defs>
<clipPath id="clip0_367_36">
<rect width="24" height="24" fill="white"/>
</clipPath>
</defs>
</svg>
