<svg width="29" height="36" viewBox="0 0 29 36" fill="none" xmlns="http://www.w3.org/2000/svg">
<path d="M0 27.8965L12.7202 36L25.3545 27.8965L22.7774 24.6647C15.8674 30.864 9.09013 30.6714 2.43263 24.6647L0 27.8965Z" fill="#074173"/>
<path d="M20.7509 7.50995V3.80049L12.6733 3.77185C10.3461 3.77185 8.07106 4.46193 6.13596 5.75484C4.20087 7.04775 2.69261 8.88542 1.80188 11.0355C0.911155 13.1856 0.677968 15.5515 1.13181 17.8341C1.58565 20.1166 2.70613 22.2134 4.35158 23.8592C5.99702 25.505 8.09354 26.626 10.376 27.0803C12.6585 27.5347 15.0245 27.302 17.1747 26.4118C19.325 25.5215 21.163 24.0136 22.4564 22.0788C23.7497 20.144 24.4403 17.8692 24.4408 15.5419L24.4694 7.50995H20.7509ZM20.7144 14.7987V14.8065C20.7136 16.2502 20.2849 17.6613 19.4824 18.8614C18.6799 20.0615 17.5396 20.9968 16.2057 21.5491C14.8718 22.1013 13.4041 22.2457 11.9881 21.9641C10.5722 21.6824 9.27145 20.9874 8.25041 19.9667C7.22937 18.946 6.53382 17.6455 6.25166 16.2297C5.9695 14.8138 6.1134 13.3461 6.66517 12.0119C7.21694 10.6778 8.15182 9.53724 9.35165 8.7343C10.5515 7.93136 11.9624 7.50212 13.4061 7.50083L20.7378 7.52817L20.7144 14.7987Z" fill="#074173"/>
<path d="M28.2816 3.77185H24.4694V7.49693H28.2816V3.77185Z" fill="#074173"/>
<path d="M24.4693 0H20.7521V3.81229H24.4693V0Z" fill="#074173"/>
</svg>
