<svg width="57" height="24" viewBox="0 0 57 24" fill="none" xmlns="http://www.w3.org/2000/svg">
<rect width="57" height="24" rx="4" fill="#34C759"/>
<path d="M9.512 16.084C9.36 16.084 9.244 16.044 9.164 15.964C9.084 15.876 9.044 15.752 9.044 15.592V7.96C9.044 7.8 9.084 7.676 9.164 7.588C9.244 7.5 9.348 7.456 9.476 7.456C9.604 7.456 9.696 7.48 9.752 7.528C9.816 7.568 9.888 7.644 9.968 7.756L15.2 14.728H14.912V7.936C14.912 7.784 14.952 7.668 15.032 7.588C15.112 7.5 15.228 7.456 15.38 7.456C15.524 7.456 15.632 7.5 15.704 7.588C15.784 7.668 15.824 7.784 15.824 7.936V15.604C15.824 15.756 15.788 15.876 15.716 15.964C15.652 16.044 15.556 16.084 15.428 16.084C15.308 16.084 15.212 16.06 15.14 16.012C15.068 15.964 14.992 15.888 14.912 15.784L9.692 8.812H9.968V15.592C9.968 15.752 9.928 15.876 9.848 15.964C9.768 16.044 9.656 16.084 9.512 16.084ZM20.2188 16.108C19.6508 16.108 19.1588 15.984 18.7428 15.736C18.3268 15.488 18.0028 15.14 17.7708 14.692C17.5468 14.236 17.4348 13.7 17.4348 13.084C17.4348 12.62 17.4988 12.204 17.6268 11.836C17.7548 11.46 17.9428 11.14 18.1908 10.876C18.4388 10.612 18.7308 10.412 19.0668 10.276C19.4108 10.132 19.7948 10.06 20.2188 10.06C20.7868 10.06 21.2788 10.184 21.6948 10.432C22.1108 10.68 22.4308 11.032 22.6548 11.488C22.8868 11.936 23.0028 12.468 23.0028 13.084C23.0028 13.548 22.9388 13.964 22.8108 14.332C22.6828 14.7 22.4948 15.02 22.2468 15.292C21.9988 15.556 21.7028 15.76 21.3588 15.904C21.0228 16.04 20.6428 16.108 20.2188 16.108ZM20.2188 15.328C20.5788 15.328 20.8948 15.24 21.1668 15.064C21.4388 14.888 21.6468 14.632 21.7908 14.296C21.9428 13.96 22.0188 13.556 22.0188 13.084C22.0188 12.356 21.8548 11.8 21.5268 11.416C21.2068 11.032 20.7708 10.84 20.2188 10.84C19.8508 10.84 19.5308 10.928 19.2588 11.104C18.9948 11.272 18.7868 11.524 18.6348 11.86C18.4908 12.188 18.4188 12.596 18.4188 13.084C18.4188 13.804 18.5828 14.36 18.9108 14.752C19.2388 15.136 19.6748 15.328 20.2188 15.328ZM24.9548 16.084C24.7948 16.084 24.6708 16.04 24.5828 15.952C24.5028 15.864 24.4628 15.74 24.4628 15.58V10.576C24.4628 10.416 24.5028 10.296 24.5828 10.216C24.6628 10.128 24.7788 10.084 24.9308 10.084C25.0828 10.084 25.1988 10.128 25.2788 10.216C25.3668 10.296 25.4108 10.416 25.4108 10.576V11.548H25.2908C25.4188 11.076 25.6628 10.712 26.0228 10.456C26.3828 10.2 26.8268 10.064 27.3548 10.048C27.4748 10.04 27.5708 10.068 27.6428 10.132C27.7148 10.188 27.7548 10.288 27.7628 10.432C27.7708 10.568 27.7388 10.676 27.6668 10.756C27.5948 10.836 27.4828 10.884 27.3308 10.9L27.1388 10.924C26.5948 10.972 26.1748 11.148 25.8788 11.452C25.5908 11.748 25.4468 12.156 25.4468 12.676V15.58C25.4468 15.74 25.4028 15.864 25.3148 15.952C25.2348 16.04 25.1148 16.084 24.9548 16.084ZM29.2676 16.084C29.1076 16.084 28.9876 16.04 28.9076 15.952C28.8276 15.864 28.7876 15.74 28.7876 15.58V10.576C28.7876 10.416 28.8276 10.296 28.9076 10.216C28.9876 10.128 29.1036 10.084 29.2556 10.084C29.4076 10.084 29.5236 10.128 29.6036 10.216C29.6916 10.296 29.7356 10.416 29.7356 10.576V11.632L29.6036 11.464C29.7556 11.016 29.9996 10.672 30.3356 10.432C30.6796 10.184 31.0876 10.06 31.5596 10.06C32.0556 10.06 32.4556 10.18 32.7596 10.42C33.0716 10.652 33.2796 11.016 33.3836 11.512H33.2036C33.3476 11.064 33.6036 10.712 33.9716 10.456C34.3476 10.192 34.7836 10.06 35.2796 10.06C35.7196 10.06 36.0796 10.144 36.3596 10.312C36.6476 10.48 36.8636 10.736 37.0076 11.08C37.1516 11.416 37.2236 11.844 37.2236 12.364V15.58C37.2236 15.74 37.1796 15.864 37.0916 15.952C37.0116 16.04 36.8916 16.084 36.7316 16.084C36.5796 16.084 36.4596 16.04 36.3716 15.952C36.2916 15.864 36.2516 15.74 36.2516 15.58V12.412C36.2516 11.876 36.1596 11.484 35.9756 11.236C35.7916 10.98 35.4796 10.852 35.0396 10.852C34.5596 10.852 34.1796 11.02 33.8996 11.356C33.6276 11.684 33.4916 12.132 33.4916 12.7V15.58C33.4916 15.74 33.4476 15.864 33.3596 15.952C33.2796 16.04 33.1596 16.084 32.9996 16.084C32.8476 16.084 32.7276 16.04 32.6396 15.952C32.5596 15.864 32.5196 15.74 32.5196 15.58V12.412C32.5196 11.876 32.4236 11.484 32.2316 11.236C32.0476 10.98 31.7396 10.852 31.3076 10.852C30.8276 10.852 30.4476 11.02 30.1676 11.356C29.8956 11.684 29.7596 12.132 29.7596 12.7V15.58C29.7596 15.916 29.5956 16.084 29.2676 16.084ZM40.8769 16.108C40.4769 16.108 40.1169 16.032 39.7969 15.88C39.4849 15.72 39.2369 15.504 39.0529 15.232C38.8689 14.96 38.7769 14.656 38.7769 14.32C38.7769 13.888 38.8849 13.548 39.1009 13.3C39.3249 13.052 39.6889 12.876 40.1929 12.772C40.7049 12.668 41.4009 12.616 42.2809 12.616H42.8209V13.252H42.2929C41.6449 13.252 41.1329 13.284 40.7569 13.348C40.3889 13.404 40.1289 13.504 39.9769 13.648C39.8329 13.792 39.7609 13.996 39.7609 14.26C39.7609 14.588 39.8729 14.856 40.0969 15.064C40.3289 15.272 40.6409 15.376 41.0329 15.376C41.3529 15.376 41.6329 15.3 41.8729 15.148C42.1209 14.996 42.3129 14.788 42.4489 14.524C42.5929 14.26 42.6649 13.956 42.6649 13.612V12.244C42.6649 11.748 42.5649 11.392 42.3649 11.176C42.1649 10.952 41.8369 10.84 41.3809 10.84C41.1009 10.84 40.8209 10.876 40.5409 10.948C40.2609 11.02 39.9649 11.136 39.6529 11.296C39.5409 11.352 39.4449 11.372 39.3649 11.356C39.2849 11.332 39.2209 11.288 39.1729 11.224C39.1249 11.16 39.0969 11.088 39.0889 11.008C39.0809 10.92 39.0969 10.836 39.1369 10.756C39.1849 10.676 39.2569 10.612 39.3529 10.564C39.7049 10.388 40.0529 10.26 40.3969 10.18C40.7409 10.1 41.0689 10.06 41.3809 10.06C41.8849 10.06 42.3009 10.144 42.6289 10.312C42.9569 10.472 43.2009 10.72 43.3609 11.056C43.5209 11.384 43.6009 11.808 43.6009 12.328V15.58C43.6009 15.74 43.5609 15.864 43.4809 15.952C43.4089 16.04 43.3009 16.084 43.1569 16.084C43.0049 16.084 42.8889 16.04 42.8089 15.952C42.7289 15.864 42.6889 15.74 42.6889 15.58V14.644H42.7969C42.7329 14.948 42.6089 15.208 42.4249 15.424C42.2489 15.64 42.0289 15.808 41.7649 15.928C41.5009 16.048 41.2049 16.108 40.8769 16.108ZM47.1802 16.108C46.6042 16.108 46.1642 15.932 45.8602 15.58C45.5562 15.228 45.4042 14.724 45.4042 14.068V7.948C45.4042 7.788 45.4442 7.668 45.5242 7.588C45.6042 7.5 45.7242 7.456 45.8842 7.456C46.0362 7.456 46.1562 7.5 46.2442 7.588C46.3322 7.668 46.3762 7.788 46.3762 7.948V13.996C46.3762 14.428 46.4602 14.752 46.6282 14.968C46.8042 15.176 47.0602 15.28 47.3962 15.28C47.4682 15.28 47.5322 15.276 47.5882 15.268C47.6442 15.26 47.7002 15.256 47.7562 15.256C47.8442 15.248 47.9042 15.268 47.9362 15.316C47.9762 15.364 47.9962 15.46 47.9962 15.604C47.9962 15.748 47.9642 15.856 47.9002 15.928C47.8362 16 47.7322 16.048 47.5882 16.072C47.5242 16.08 47.4562 16.088 47.3842 16.096C47.3122 16.104 47.2442 16.108 47.1802 16.108Z" fill="black"/>
</svg>
