<svg width="58" height="58" viewBox="0 0 58 58" fill="none" xmlns="http://www.w3.org/2000/svg">
<rect width="58" height="58" rx="29" fill="#ECFFDD"/>
<g clip-path="url(#clip0_87_198)">
<path d="M26 35C26 35.7956 26.3161 36.5587 26.8787 37.1213C27.4413 37.6839 28.2044 38 29 38C29.7956 38 30.5587 37.6839 31.1213 37.1213C31.6839 36.5587 32 35.7956 32 35" stroke="#6D934D" stroke-width="2" stroke-linecap="round" stroke-linejoin="round"/>
<path d="M34.25 19.25C35.6983 20.1741 36.873 21.4689 37.6522 23" stroke="#6D934D" stroke-width="2" stroke-linecap="round" stroke-linejoin="round"/>
<path d="M20.3478 23C21.1271 21.4689 22.3017 20.1741 23.75 19.25" stroke="#6D934D" stroke-width="2" stroke-linecap="round" stroke-linejoin="round"/>
<path d="M22.25 27.5C22.25 25.7098 22.9612 23.9929 24.227 22.727C25.4929 21.4612 27.2098 20.75 29 20.75C30.7902 20.75 32.5071 21.4612 33.773 22.727C35.0388 23.9929 35.75 25.7098 35.75 27.5C35.75 30.8581 36.5281 32.8063 37.1469 33.875C37.2126 33.9888 37.2472 34.1179 37.2474 34.2493C37.2475 34.3808 37.2131 34.5099 37.1475 34.6239C37.082 34.7378 36.9877 34.8325 36.8741 34.8985C36.7604 34.9645 36.6314 34.9995 36.5 35H21.5C21.3687 34.9992 21.24 34.964 21.1266 34.8978C21.0132 34.8317 20.9192 34.7369 20.8539 34.6231C20.7886 34.5092 20.7543 34.3801 20.7545 34.2489C20.7547 34.1176 20.7894 33.9887 20.855 33.875C21.4728 32.8063 22.25 30.8572 22.25 27.5Z" stroke="#6D934D" stroke-width="2" stroke-linecap="round" stroke-linejoin="round"/>
</g>
<defs>
<clipPath id="clip0_87_198">
<rect width="24" height="24" fill="white" transform="translate(17 17)"/>
</clipPath>
</defs>
</svg>
