<svg width="58" height="58" viewBox="0 0 58 58" fill="none" xmlns="http://www.w3.org/2000/svg">
<rect width="58" height="58" rx="29" fill="#F3F3F3"/>
<g clip-path="url(#clip0_407_646)">
<path d="M22.1056 35.8944C21.2431 35.0319 21.815 33.2197 21.3763 32.1584C20.9206 31.0625 19.25 30.1719 19.25 29C19.25 27.8281 20.9206 26.9375 21.3763 25.8416C21.815 24.7812 21.2431 22.9681 22.1056 22.1056C22.9681 21.2431 24.7812 21.815 25.8416 21.3763C26.9422 20.9206 27.8281 19.25 29 19.25C30.1719 19.25 31.0625 20.9206 32.1584 21.3763C33.2197 21.815 35.0319 21.2431 35.8944 22.1056C36.7569 22.9681 36.185 24.7803 36.6238 25.8416C37.0794 26.9422 38.75 27.8281 38.75 29C38.75 30.1719 37.0794 31.0625 36.6238 32.1584C36.185 33.2197 36.7569 35.0319 35.8944 35.8944C35.0319 36.7569 33.2197 36.185 32.1584 36.6238C31.0625 37.0794 30.1719 38.75 29 38.75C27.8281 38.75 26.9375 37.0794 25.8416 36.6238C24.7812 36.185 22.9681 36.7569 22.1056 35.8944Z" stroke="black" stroke-width="1.5" stroke-linecap="round" stroke-linejoin="round"/>
<path d="M25.25 29.75L27.5 32L32.75 26.75" stroke="black" stroke-width="1.5" stroke-linecap="round" stroke-linejoin="round"/>
</g>
<defs>
<clipPath id="clip0_407_646">
<rect width="24" height="24" fill="white" transform="translate(17 17)"/>
</clipPath>
</defs>
</svg>
