<svg width="48" height="48" viewBox="0 0 48 48" fill="none" xmlns="http://www.w3.org/2000/svg">
<rect width="48" height="48" rx="24" fill="#F7C2FF"/>
<g clip-path="url(#clip0_414_715)">
<path d="M24 24L33 15" stroke="#350B3B" stroke-width="1.5" stroke-linecap="round" stroke-linejoin="round"/>
<path d="M30.3636 17.6365C28.7695 16.0461 26.6366 15.112 24.3867 15.0189C22.1369 14.9258 19.9341 15.6806 18.214 17.1338C16.494 18.587 15.382 20.6329 15.0981 22.8667C14.8142 25.1005 15.3791 27.3595 16.6809 29.1968C17.9828 31.0341 19.9268 32.3158 22.1284 32.7885C24.33 33.2611 26.6288 32.8903 28.57 31.7492C30.5113 30.6082 31.9536 28.7801 32.6116 26.6266C33.2696 24.4731 33.0953 22.1511 32.1233 20.1199" stroke="#350B3B" stroke-width="1.5" stroke-linecap="round" stroke-linejoin="round"/>
<path d="M27.182 20.818C26.4376 20.0745 25.4562 19.6154 24.4084 19.5204C23.3606 19.4253 22.3126 19.7004 21.4466 20.2979C20.5806 20.8953 19.9513 21.7773 19.6681 22.7906C19.3848 23.8039 19.4656 24.8843 19.8963 25.8442C20.3271 26.8041 21.0805 27.5828 22.0257 28.0448C22.9709 28.5068 24.0482 28.6231 25.0702 28.3733C26.0922 28.1236 26.9944 27.5236 27.62 26.6777C28.2456 25.8318 28.555 24.7934 28.4945 23.743" stroke="#350B3B" stroke-width="1.5" stroke-linecap="round" stroke-linejoin="round"/>
</g>
<defs>
<clipPath id="clip0_414_715">
<rect width="24" height="24" fill="white" transform="translate(12 12)"/>
</clipPath>
</defs>
</svg>
